<?xml version="1.0" standalone="no"?>
<!DOCTYPE svg PUBLIC "-//W3C//DTD SVG 20010904//EN"
 "http://www.w3.org/TR/2001/REC-SVG-20010904/DTD/svg10.dtd">
<svg version="1.0" xmlns="http://www.w3.org/2000/svg"
 width="32.000000pt" height="32.000000pt" viewBox="0 0 32.000000 32.000000"
 preserveAspectRatio="xMidYMid meet">

<g transform="translate(0.000000,32.000000) scale(0.100000,-0.100000)"
fill="#000000" stroke="none">
<path d="M89 267 c-59 -40 -74 -99 -43 -173 42 -102 119 -120 197 -46 59 56
72 113 37 170 -43 70 -128 92 -191 49z m97 -68 c3 -6 1 -15 -6 -19 -7 -4 -8
-10 -3 -13 6 -4 10 -19 9 -34 -1 -21 -7 -29 -22 -31 -26 -4 -37 19 -24 53 6
16 6 25 0 25 -5 0 -7 7 -4 15 7 17 40 20 50 4z m-26 -119 c10 0 28 12 39 28
16 21 20 23 21 9 0 -10 -11 -28 -23 -40 -13 -12 -27 -29 -30 -37 -4 -11 -7
-10 -12 8 -4 12 -11 22 -15 22 -15 0 -40 31 -40 48 1 13 6 10 21 -10 11 -16
29 -28 39 -28z"/>
</g>
</svg>
